# xmcd
#
# Track frame offsets:
#       150
#       12352
#       26892
#       43047
#       65902
#       81280
#       104877
#       122842
#       139562
#       158430
#       171965
#       193075
#
# Disc length: 2815 seconds
#
# Revision: 0
# Processed by: cddbd v1.4PL0 Copyright (c) Steve Scherf et al.
# Submitted via: CD-DA_X-Tractor v0.21
#
DISCID=ab0afd0c
DTITLE=Jetzendorfer Hinterhof Musikan - 10 Jahre - 1984 - 1994
DYEAR=1900
DGENRE=
TTITLE0=Das Eisenkeilnest
TTITLE1=Hiatamad'l
TTITLE2=Von den blauen Bergen kommen wir
TTITLE3=Blue Moon
TTITLE4=Warte, warte nur ein weilchen
TTITLE5=Koa' Hiatamadl
TTITLE6=Zillertaler Hochzeits Blues
TTITLE7=Country Roads
TTITLE8=What I'd Say
TTITLE9=Tequilla
TTITLE10=Unchain my Heart
TTITLE11=Sierra Madre
EXTD=
EXTT0=
EXTT1=
EXTT2=
EXTT3=
EXTT4=
EXTT5=
EXTT6=
EXTT7=
EXTT8=
EXTT9=
EXTT10=
EXTT11=
PLAYORDER=
